<?xml version="1.0" encoding="iso-8859-1"?>
<!-- Uploaded to: SVG Repo, www.svgrepo.com, Generator: SVG Repo Mixer Tools -->
<svg height="800px" width="800px" version="1.1" id="Layer_1" xmlns="http://www.w3.org/2000/svg" xmlns:xlink="http://www.w3.org/1999/xlink" 
	 viewBox="0 0 512.003 512.003" xml:space="preserve">
<g>
	<path style="fill:#4CB0D8;" d="M133.558,361.093c-17.38-5.599-35.771-8.59-54.661-8.59c-9.944,0-20.029,0.841-30.159,2.55
		c16.539,97.741,109.195,163.571,206.937,147.032"/>
	<path style="fill:#4CB0D8;" d="M255.669,502.088c-66.006-21.209-111.25-77.042-122.116-140.998
		c-4.681-27.468-2.996-56.438,6.112-84.802c25.053,8.052,47.125,21.076,65.448,37.677"/>
	<path style="fill:#4CB0D8;" d="M378.446,361.093c17.38-5.599,35.771-8.59,54.661-8.59c9.944,0,20.029,0.841,30.159,2.55
		c-16.539,97.742-109.195,163.571-206.937,147.032"/>
	<path style="fill:#4CB0D8;" d="M256.335,502.088c66.006-21.209,111.25-77.042,122.116-140.998
		c4.681-27.468,2.996-56.438-6.112-84.802c-25.053,8.052-47.125,21.076-65.448,37.677"/>
</g>
<path style="fill:#53BEF4;" d="M282.143,475.946l-25.918,25.918l-0.215,0.215l-26.133-26.133c-55.67-55.659-55.67-145.913,0-201.584
	l26.133-26.133l26.133,26.133C337.802,330.033,337.802,420.287,282.143,475.946z"/>
<path style="fill:#4CB0D8;" d="M256.225,501.864l-0.215,0.215l-26.133-26.133c-55.67-55.659-55.67-145.913,0-201.584l26.133-26.133
	C256.01,248.23,190.656,382.151,256.225,501.864z"/>
<path d="M469.266,350.792c-1.13-1.591-2.846-2.665-4.771-2.99c-10.43-1.76-20.99-2.653-31.382-2.653
	c-15.496,0-30.867,1.937-45.842,5.757c2.734-25.714,0.041-52.063-7.934-76.868c-1.243-3.866-5.385-5.99-9.252-4.75
	c-21.566,6.931-41.26,17.44-58.719,31.278c-6.442-11.235-14.445-21.812-24.031-31.399l-26.133-26.133
	c-1.38-1.379-3.25-2.154-5.201-2.154c-1.95,0-3.82,0.775-5.199,2.154l-26.135,26.133c-9.587,9.587-17.589,20.163-24.031,31.398
	c-17.457-13.833-37.155-24.342-58.729-31.275c-1.859-0.596-3.876-0.431-5.611,0.46c-1.734,0.891-3.044,2.436-3.64,4.293
	c-7.964,24.805-10.656,51.152-7.93,76.865c-14.974-3.819-30.343-5.755-45.837-5.755c-10.394,0-20.953,0.893-31.381,2.653
	c-1.924,0.325-3.64,1.401-4.771,2.99s-1.582,3.564-1.257,5.488c15.413,91.083,94.684,155.696,184.138,155.693
	c10.023,0,20.179-0.819,30.382-2.496c10.245,1.685,20.494,2.523,30.677,2.523c38.44,0,75.863-11.866,107.833-34.582
	c40.689-28.909,67.681-71.93,76.009-121.139C470.849,354.356,470.397,352.381,469.266,350.792z M367.479,285.74
	c6.612,24.152,7.907,49.618,3.721,74.121c-8.628,50.843-38.993,94.105-82.152,119.533c43.665-45.099,53.372-111.059,29.122-165.439
	C332.9,301.856,349.431,292.396,367.479,285.74z M235.07,279.564l20.934-20.933l20.933,20.933c52.71,52.71,52.71,138.475,0,191.186
	l-20.933,20.932l-20.933-20.932C182.36,418.039,182.36,332.274,235.07,279.564z M144.522,285.741
	c18.056,6.658,34.589,16.117,49.316,28.211c-24.252,54.381-14.544,120.346,29.125,165.445
	c-43.156-25.427-73.527-68.693-82.165-119.542C136.624,335.358,137.92,309.892,144.522,285.741z M57.399,361.21
	c23.689-2.966,47.248-1.02,69.745,5.605c11.066,56.838,47.261,104.488,97.767,130.447C145.243,496.924,74.466,440.966,57.399,361.21
	z M385.997,465.43c-29.348,20.851-63.678,31.776-98.953,31.857c50.54-25.954,86.755-73.617,97.812-130.47
	c22.5-6.628,46.064-8.575,69.755-5.607C445.594,403.457,421.432,440.253,385.997,465.43z"/>
<path d="M189.711,203.644c7.562,4.195,15.867,6.327,24.267,6.327c4.776,0,9.582-0.69,14.297-2.083
	c13.008-3.842,23.687-12.548,30.07-24.516c6.996-13.116,7.149-28.241,0.424-41.499c-1.661-3.273-3.664-6.27-5.956-8.967
	c9.849-3.43,18.642-9.713,25.03-18.184l19.001-25.202c5.4-7.162,13.632-11.01,22.593-10.564c8.959,0.448,16.768,5.102,21.419,12.756
	l0.113,0.184c15.254,25.107,12.065,57.787-7.755,79.472c-5.589,6.113-13.543,9.236-21.784,8.577
	c-8.257-0.663-15.597-5.017-20.139-11.944l-9.751-14.873c-2.226-3.397-6.785-4.345-10.18-2.119
	c-3.396,2.226-4.345,6.785-2.118,10.182l9.751,14.873c7.049,10.754,18.443,17.511,31.26,18.541c1.132,0.092,2.259,0.136,3.381,0.136
	c11.583,0,22.526-4.798,30.435-13.45c24.2-26.474,28.093-66.375,9.476-97.018l-0.113-0.186
	c-7.124-11.725-19.556-19.133-33.259-19.819c-13.686-0.69-26.813,5.445-35.071,16.399L266.1,105.87
	c-6.902,9.157-17.692,14.77-29.108,15.245c-3.288-1.447-6.78-2.521-10.437-3.165l16.031-13.235
	c6.922-5.715,11.101-13.794,11.769-22.747c0.666-8.953-2.272-17.56-8.272-24.238c-6.048-6.731-14.361-10.571-23.405-10.813
	c-9.039-0.239-17.553,3.149-23.953,9.548l-24.594,24.595c-2.871,2.872-2.871,7.528,0.001,10.399c2.87,2.871,7.526,2.871,10.399,0
	l24.593-24.595c3.516-3.516,8.195-5.375,13.16-5.246c4.97,0.132,9.537,2.242,12.859,5.94c3.297,3.669,4.911,8.398,4.544,13.316
	c-0.365,4.919-2.663,9.357-6.466,12.497l-28.84,23.81c-2.244,1.854-3.185,4.858-2.396,7.661c0.787,2.803,3.156,4.877,6.039,5.289
	l14.93,2.132c9.901,1.414,18.175,7.342,22.7,16.262c4.525,8.92,4.421,19.098-0.286,27.926c-4.512,8.461-12.061,14.615-21.257,17.331
	c-9.197,2.717-18.881,1.651-27.266-3.001c-22.433-12.444-36.022-36.108-35.466-61.756l0.144-6.585
	c0.089-4.06-3.131-7.423-7.19-7.512c-0.054-0.001-0.109-0.001-0.164-0.001c-3.986,0-7.261,3.188-7.348,7.193l-0.144,6.586
	C146,159.828,162.49,188.542,189.711,203.644z"/>
<path d="M239.761,37.64c8.033,9.269,19.205,14.663,31.459,15.189c0.655,0.028,1.307,0.043,1.958,0.043
	c11.526,0,22.359-4.391,30.685-12.479l12.1-11.754c2.912-2.829,2.981-7.486,0.15-10.398c-2.829-2.913-7.483-2.981-10.398-0.152
	l-12.1,11.754c-5.867,5.698-13.613,8.65-21.765,8.292c-8.171-0.351-15.62-3.947-20.975-10.127l-11.668-13.463
	c-2.66-3.069-7.305-3.401-10.373-0.741c-3.069,2.66-3.401,7.305-0.741,10.373L239.761,37.64z"/>
<path d="M272.244,23.854c6.576,0,11.927-5.35,11.927-11.927S278.822,0,272.244,0c-6.577,0-11.928,5.351-11.928,11.927
	S265.668,23.854,272.244,23.854z M272.244,9.148c1.532,0,2.778,1.247,2.778,2.78c0,1.532-1.247,2.78-2.778,2.78
	s-2.78-1.247-2.78-2.78S270.712,9.148,272.244,9.148z"/>
</svg>